<?xml version="1.0" standalone="no"?>
<!DOCTYPE svg PUBLIC "-//W3C//DTD SVG 20010904//EN"
 "http://www.w3.org/TR/2001/REC-SVG-20010904/DTD/svg10.dtd">
<svg version="1.0" xmlns="http://www.w3.org/2000/svg"
 width="361.000000pt" height="92.000000pt" viewBox="0 0 361.000000 92.000000"
 preserveAspectRatio="xMidYMid meet">
<metadata>
Created by potrace 1.15, written by Peter Selinger 2001-2017
</metadata>
<g transform="translate(0.000000,92.000000) scale(0.100000,-0.100000)"
fill="#000000" stroke="none">
<path d="M7 913 c-4 -3 -7 -208 -7 -454 0 -398 2 -448 16 -453 9 -3 509 -6
1113 -6 840 0 1100 3 1109 12 7 7 12 33 12 58 0 43 -7 56 -80 153 -44 59 -85
107 -90 107 -5 0 -57 -64 -116 -142 -59 -79 -110 -147 -115 -152 -9 -10 -27 1
-127 71 l-62 44 115 151 c63 83 115 154 115 158 0 4 -45 70 -101 145 -55 76
-103 143 -105 150 -3 7 32 39 82 75 73 52 89 60 98 48 6 -8 53 -74 105 -147
52 -72 100 -131 105 -130 6 0 48 52 94 115 84 117 100 162 70 192 -9 9 -271
12 -1118 12 -609 0 -1110 -3 -1113 -7z m638 -54 c63 -16 145 -50 145 -60 0
-10 -60 -169 -63 -169 -1 0 -35 11 -75 25 -148 50 -254 20 -298 -84 -18 -43
-18 -181 0 -224 21 -51 78 -95 133 -103 55 -8 140 7 210 37 25 11 47 18 49 17
5 -6 64 -159 64 -168 0 -13 -84 -49 -155 -65 -77 -19 -215 -19 -283 -1 -111
30 -193 102 -234 205 -19 47 -22 76 -23 186 0 126 1 132 32 197 68 143 193
216 373 217 47 1 103 -4 125 -10z m704 -9 c120 -23 218 -98 269 -208 24 -52
26 -68 26 -177 0 -143 -19 -206 -89 -283 -88 -97 -213 -128 -490 -118 l-160 5
-3 396 -2 395 199 0 c109 0 221 -4 250 -10z"/>
<path d="M1122 463 l3 -208 92 1 c156 3 198 47 198 209 -1 102 -15 139 -67
177 -28 19 -48 24 -131 26 l-97 4 2 -209z"/>
</g>
</svg>
