<?xml version="1.0" standalone="no"?>
<!DOCTYPE svg PUBLIC "-//W3C//DTD SVG 20010904//EN"
 "http://www.w3.org/TR/2001/REC-SVG-20010904/DTD/svg10.dtd">
<svg version="1.0" xmlns="http://www.w3.org/2000/svg"
 width="361.000000pt" height="92.000000pt" viewBox="0 0 361.000000 92.000000"
 preserveAspectRatio="xMidYMid meet">

<g transform="translate(0.000000,92.000000) scale(0.100000,-0.100000)"
fill="#000000" stroke="none">
<path d="M5 908 c-3 -7 -4 -213 -3 -458 l3 -445 1120 0 1120 0 3 58 3 58 -78
105 c-42 57 -84 104 -93 104 -8 0 -66 -68 -128 -150 l-113 -151 -75 53 c-41
29 -80 58 -85 65 -8 8 22 54 106 163 l116 150 -110 150 c-61 82 -111 151 -111
153 0 2 38 30 85 62 53 37 89 55 94 49 6 -5 52 -67 104 -139 51 -71 100 -131
109 -133 9 -2 45 39 97 110 77 106 82 115 79 158 l-3 45 -1118 3 c-889 2
-1119 0 -1122 -10z m695 -67 c100 -32 97 -26 60 -124 l-33 -85 -71 25 c-93 32
-194 30 -244 -5 -54 -39 -76 -93 -76 -192 0 -72 4 -92 24 -130 50 -90 162
-114 302 -65 39 14 75 25 79 25 6 0 69 -147 69 -161 0 -12 -123 -57 -188 -69
-39 -8 -98 -11 -155 -7 -118 8 -218 53 -272 123 -61 81 -79 142 -79 279 0 102
3 129 23 177 43 109 143 193 266 225 70 18 215 10 295 -16z m693 -4 c110 -35
186 -108 229 -217 29 -73 31 -230 5 -306 -37 -108 -100 -175 -207 -219 -39
-17 -78 -20 -277 -23 l-233 -4 0 397 0 397 218 -4 c158 -4 230 -9 265 -21z"/>
<path d="M1120 459 l0 -211 100 4 c107 4 131 14 174 71 25 34 35 175 16 233
-28 86 -77 114 -200 114 l-90 0 0 -211z"/>
<path d="M2250 718 c-50 -27 -67 -114 -30 -161 21 -27 74 -41 114 -31 43 10
29 24 -23 24 -51 0 -81 17 -81 46 0 10 15 14 58 15 31 1 63 1 70 0 18 -3 15
60 -6 86 -21 28 -69 38 -102 21z m78 -30 c7 -7 12 -20 12 -30 0 -15 -9 -18
-55 -18 -57 0 -64 6 -43 40 14 23 67 27 86 8z"/>
<path d="M2414 678 l35 -51 -28 -41 c-44 -65 -44 -66 -22 -66 11 0 22 8 25 18
4 9 15 28 25 41 l19 24 27 -41 c15 -23 34 -42 41 -42 20 0 18 6 -17 57 -34 49
-34 48 12 121 18 27 18 32 5 32 -9 0 -27 -19 -42 -41 l-26 -42 -25 42 c-15 26
-31 41 -44 41 -17 0 -16 -5 15 -52z"/>
<path d="M2570 585 c0 -141 1 -145 21 -145 19 0 21 5 17 50 -3 54 -2 56 37 38
38 -17 90 13 106 59 30 93 -51 176 -122 124 -29 -21 -29 -21 -29 -1 0 11 -7
20 -15 20 -13 0 -15 -23 -15 -145z m141 93 c14 -27 14 -80 0 -107 -14 -25 -72
-29 -91 -6 -14 17 -17 96 -5 115 20 32 79 30 96 -2z"/>
<path d="M2790 625 c0 -98 1 -105 20 -105 18 0 20 7 20 74 0 76 13 106 46 106
8 0 14 7 14 15 0 20 -12 19 -44 -6 l-26 -20 0 20 c0 12 -6 21 -15 21 -12 0
-15 -18 -15 -105z"/>
<path d="M2937 719 c-25 -14 -47 -63 -47 -102 0 -66 59 -108 130 -92 46 10 35
25 -18 25 -48 0 -82 20 -82 47 0 14 40 21 95 17 42 -4 45 -3 45 20 0 71 -67
117 -123 85z m81 -31 c7 -7 12 -20 12 -30 0 -15 -9 -18 -55 -18 -59 0 -63 4
-39 38 17 24 62 30 82 10z"/>
<path d="M3118 719 c-24 -14 -39 -44 -32 -64 4 -9 24 -25 45 -35 43 -23 51
-32 43 -53 -7 -18 -44 -26 -72 -16 -16 6 -22 4 -22 -5 0 -14 29 -26 62 -26 9
0 29 10 44 23 37 32 28 68 -23 92 -66 31 -67 65 -2 65 43 0 52 14 17 24 -31 8
-40 7 -60 -5z"/>
<path d="M3243 706 c-24 -21 -26 -27 -16 -49 6 -13 29 -33 50 -43 21 -11 39
-27 41 -37 4 -22 -34 -37 -70 -26 -21 5 -28 4 -28 -6 0 -32 69 -33 106 -2 39
34 28 68 -32 96 -59 28 -58 55 4 59 43 3 55 15 26 26 -29 11 -53 6 -81 -18z"/>
<path d="M3057 484 c-14 -14 -7 -35 11 -32 9 2 17 10 17 17 0 16 -18 25 -28
15z"/>
<path d="M2433 398 c-49 -24 -38 -71 24 -103 25 -13 38 -27 38 -40 0 -17 -7
-20 -48 -20 -49 0 -65 -18 -24 -29 38 -10 55 -7 83 17 38 33 28 68 -26 92 -47
21 -52 27 -44 49 4 11 19 16 45 16 40 0 52 13 23 24 -22 8 -45 6 -71 -6z"/>
<path d="M2603 400 c-50 -21 -69 -117 -33 -163 21 -27 74 -41 114 -31 43 10
29 24 -23 24 -52 0 -81 17 -81 48 0 14 11 17 67 17 l68 0 -1 38 c-1 21 -8 45
-15 53 -19 18 -69 26 -96 14z m77 -39 c18 -35 12 -41 -45 -41 -57 0 -64 6 -43
40 17 27 73 27 88 1z"/>
<path d="M2750 305 c0 -98 1 -105 20 -105 18 0 20 7 20 73 0 59 4 77 18 90 10
10 23 17 29 17 6 0 13 5 15 12 2 6 20 -32 39 -86 30 -88 50 -119 65 -103 3 2
22 50 44 106 33 87 36 101 21 101 -12 0 -24 -23 -45 -85 -15 -47 -29 -85 -31
-85 -2 0 -16 38 -31 85 -27 80 -30 85 -57 85 -16 0 -38 -10 -52 -25 l-25 -24
0 24 c0 16 -6 25 -15 25 -12 0 -15 -18 -15 -105z"/>
<path d="M3050 305 c0 -97 1 -105 20 -105 18 0 19 7 17 105 -2 93 -4 105 -19
105 -16 0 -18 -12 -18 -105z"/>
<path d="M3173 395 c-39 -17 -55 -46 -55 -98 1 -64 52 -104 118 -91 49 9 42
24 -10 24 -52 0 -76 24 -76 77 0 53 34 79 98 73 25 -2 30 15 6 24 -24 9 -46 7
-81 -9z"/>
<path d="M3331 396 c-51 -28 -68 -112 -31 -159 21 -27 74 -41 114 -31 42 10
29 24 -22 24 -35 0 -54 5 -65 18 -35 39 -23 45 81 45 36 -1 42 2 42 21 0 42
-13 67 -41 81 -34 18 -47 18 -78 1z m77 -29 c6 -5 12 -18 12 -28 0 -16 -8 -19
-55 -19 -61 0 -71 14 -36 49 20 20 52 19 79 -2z"/>
<path d="M3494 387 c-35 -31 -26 -59 29 -89 27 -15 42 -30 42 -43 0 -17 -7
-20 -48 -20 -54 0 -65 -20 -16 -30 37 -8 86 10 94 36 10 32 -4 56 -43 75 -65
30 -65 64 -1 64 40 0 52 13 23 24 -29 11 -53 6 -80 -17z"/>
</g>
</svg>
